inDegrees=no
num_controls=7
num_derivatives=13
num_iterations=104
num_multipliers=7
num_parameters=0
num_slacks=7
num_states=26
objective=0.546013
objective_accelerations=0.041377
objective_balance=0.003679
objective_effort=0.040221
objective_height=0.451259
objective_ligament=0.009478
solver_duration=1270.215217
status=Solve_Succeeded
success=true
DataType=double
version=3
OpenSimVersion=4.5
endheader
time	/jointset/ground_pelvis/pelvis_tilt/value	/jointset/ground_pelvis/pelvis_tx/value	/jointset/ground_pelvis/pelvis_ty/value	/jointset/hip_r/hip_flexion_r/value	/jointset/hip_r/hip_adduction_r/value	/jointset/hip_r/hip_rotation_r/value	/jointset/back/lumbar_extension/value	/jointset/patellofemoral_r/patellar_flexion_r/value	/jointset/knee_r/knee_flexion_r/value	/jointset/knee_r/knee_adduction_r/value	/jointset/knee_r/knee_rotation_r/value	/jointset/ankle_r/ankle_angle_r/value	/jointset/subtalar_r/subtalar_angle_r/value	/jointset/ground_pelvis/pelvis_tilt/speed	/jointset/ground_pelvis/pelvis_tx/speed	/jointset/ground_pelvis/pelvis_ty/speed	/jointset/hip_r/hip_flexion_r/speed	/jointset/hip_r/hip_adduction_r/speed	/jointset/hip_r/hip_rotation_r/speed	/jointset/back/lumbar_extension/speed	/jointset/patellofemoral_r/patellar_flexion_r/speed	/jointset/knee_r/knee_flexion_r/speed	/jointset/knee_r/knee_adduction_r/speed	/jointset/knee_r/knee_rotation_r/speed	/jointset/ankle_r/ankle_angle_r/speed	/jointset/subtalar_r/subtalar_angle_r/speed	/forceset/tau_hip_flexion_r	/forceset/tau_hip_adduction_r	/forceset/tau_hip_rotation_r	/forceset/tau_knee_flexion_r	/forceset/tau_ankle_angle_r	/forceset/tau_subtalar_angle_r	/forceset/tau_lumbar_extension	lambda_cid13_p0	lambda_cid14_p0	lambda_cid14_p1	lambda_cid14_p2	lambda_cid14_p3	lambda_cid14_p4	lambda_cid14_p5	/jointset/ground_pelvis/pelvis_tilt/accel	/jointset/ground_pelvis/pelvis_tx/accel	/jointset/ground_pelvis/pelvis_ty/accel	/jointset/hip_r/hip_flexion_r/accel	/jointset/hip_r/hip_adduction_r/accel	/jointset/hip_r/hip_rotation_r/accel	/jointset/back/lumbar_extension/accel	/jointset/patellofemoral_r/patellar_flexion_r/accel	/jointset/knee_r/knee_flexion_r/accel	/jointset/knee_r/knee_adduction_r/accel	/jointset/knee_r/knee_rotation_r/accel	/jointset/ankle_r/ankle_angle_r/accel	/jointset/subtalar_r/subtalar_angle_r/accel	gamma_cid13_p0	gamma_cid14_p0	gamma_cid14_p1	gamma_cid14_p2	gamma_cid14_p3	gamma_cid14_p4	gamma_cid14_p5
0.5	-0.2106309606419455	0.00238625564439332	0.8425704875111177	0.8853759915038418	-0.2279294362400537	-0.1324212133191408	-0.3355432095703636	0.6949752597605195	0.6949752597605372	0.03625679126207328	0.1745027001357128	0.1888569622665159	0.03847452898138855	-0.5663318077881431	-0.2004887399844972	-0.3980565739598094	1.91269882474088	-0.001517819534709605	0.2652534073837615	-0.5919638069020179	1.669497401567119	1.669497401566969	-0.2793348304808205	-9.579029469914875e-05	0.4045080926604361	0.1027793029734168	-0.1477425296734311	-0.02006082645051296	0.009247820432859493	-0.3118332459856988	0.1066921305218123	-0.009818193557170877	0.18383425440344	-31.61641590119028	-7.968789267337556	-1.5474606949637	-3.990055092864806	-0.8007249612056397	-667.701846240298	58.6115821618915	0.2795790306584223	0.4900186242475295	-0.3446627425235871	-1.24574650474462	-0.03524722555195565	-0.492024906824082	1.659931643936275	-1.216409304684674	-1.216409304684659	0.4721823239858705	-0.001214758598728868	-0.3854275843501793	-0.09509690606687836	-1.067869290444293e-07	-1.404702698117857e-07	5.066471002987379e-07	-9.372549268350236e-07	3.501958894230386e-08	-2.236427942067981e-07	4.226908614622599e-07
0.51	-0.2162791858863224	0.0004060907192677216	0.83857360753481	0.9044375442307997	-0.2279471356306786	-0.1297926277667204	-0.341379498804144	0.7116068972620121	0.7116068972620406	0.03348918472827171	0.1745019055265421	0.1928818882895529	0.03949636163065271	-0.5632319471842446	-0.1955252136838019	-0.4012297170847904	1.899351291141947	-0.002029797281730267	0.2604965943212951	-0.5752261666894917	1.656597214763641	1.656597214763493	-0.2741279149215889	-8.351368108623685e-05	0.4004146578404574	0.1015574959093047	-0.1552543274939015	-0.01846956864886476	0.009896187029267577	-0.3141966157499378	0.1040303259119154	-0.009431107114957734	0.1902185883645518	-30.65807278169208	-9.031838191239441	-1.671856720838628	-3.84871634809892	-0.3816008056908143	-671.8228097020778	58.3439321808749	0.337372011160405	0.5023788878922684	-0.2902261117523351	-1.418337096719307	-0.06040411527911892	-0.4627310524906663	1.690861184615738	-1.361735918478145	-1.361735918477935	0.5537756641073854	-0.00076565633791209	-0.4306813858408333	-0.1401939811868269	-8.41503043571981e-08	-6.092000548080666e-08	7.287141429809238e-07	-3.729114845981294e-07	-4.232021830740072e-08	-1.445971730771171e-07	4.009086232388277e-07
0.52	-0.221893976037478	-0.00152386709186857	0.8345476789243991	0.9233578055599191	-0.2279702010119697	-0.1272106546542359	-0.3470463754408581	0.7281025503854074	0.7281025503854497	0.03077541324850958	0.1745005907779747	0.1968640039733864	0.04050508193435509	-0.5596447891441513	-0.1904473171866359	-0.403866300780454	1.88444054517295	-0.002591017668830657	0.2559309193975179	-0.558081287488768	1.642300525948212	1.642300525948065	-0.2685678196737346	-0.0001998181746424683	0.3959460248197139	0.1001568338610539	-0.1627661253143757	-0.01687831084722376	0.01054455362573983	-0.3165599855141795	0.1013685213020143	-0.009044020672759912	0.1966029223256622	-29.6932558562853	-10.09849408947455	-1.794454982474237	-3.710439494359937	0.02660399744878254	-676.0063520925579	58.13097524599297	0.3770385178974198	0.5128926635416842	-0.237350856660115	-1.558388978757262	-0.04509575356790031	-0.4537972790862334	1.741379441575789	-1.49570970707484	-1.495709707074802	0.5428182617104274	-0.02693098003255847	-0.4604672245031393	-0.1308679028946359	-5.167449268423133e-08	6.734730752869203e-08	1.122680882177334e-06	5.234857861443266e-07	-1.738027245274505e-07	-1.602468949552954e-08	4.037973476137281e-07
0.53	-0.2274706860768586	-0.003402531345959055	0.8304980798918098	0.9421216027610505	-0.2279984252759131	-0.1246765083844531	-0.3525397666649953	0.7444484489006821	0.7444484489006985	0.02811577968208331	0.174499271649452	0.2007998340192348	0.04149988560744845	-0.5556225619746369	-0.185270196676658	-0.4059599847298575	1.868065996061498	-0.00306206159325983	0.2509293561959575	-0.5405461350130298	1.626649737674013	1.626649737673852	-0.2633050649717521	-8.490318828122897e-05	0.3911605998696765	0.09877424463278085	-0.1699855185845462	-0.01543831365071544	0.01113391941952668	-0.3192910677699556	0.09918845798610228	-0.008740165753625583	0.2027357319263882	-28.72268317797501	-11.01916784028751	-1.931431580589375	-3.565540148139845	0.3599855095492233	-680.2534262613916	57.92447682994784	0.4260230436729193	0.5223737150882504	-0.1813387112814713	-1.71490952541865	-0.04907045833889313	-0.5186750215983741	1.76720649943331	-1.63417237931277	-1.634172379314801	0.5263241234246333	0.02775238493849282	-0.4965266094317483	-0.1460765188781977	-2.848968380883279e-08	1.513102391075946e-07	1.360584334277258e-06	1.104064857446777e-06	-2.582049462410654e-07	6.754408528649205e-08	4.143577708001753e-07
0.54	-0.2330049321991066	-0.005228974000877283	0.8264303517102863	0.9607140701414509	-0.2280315523283956	-0.1221914455828632	-0.3578562816946028	0.7606309577348771	0.7606309577348594	0.02551043767247002	0.1744985116001764	0.2046860205197474	0.04248003897104217	-0.5511520057173445	-0.1800029973521844	-0.4074921305673073	1.850174581026866	-0.00357157537602861	0.2461142257581016	-0.5227060485828722	1.609622589731003	1.60962258973083	-0.2577095083104721	-8.800232319799082e-05	0.386017315752531	0.09722677196112624	-0.1772049118547103	-0.01399831645419943	0.01172328521319222	-0.3220221500257286	0.0970083946701952	-0.008436310834472691	0.2088685415271181	-27.74724036179586	-11.94609951350573	-2.069707138162364	-3.420200375574697	0.7023702568891401	-684.5969091768054	57.71801547122773	0.4667043354530379	0.530908426440826	-0.1250432342693713	-1.8617621633933	-0.05278972523582584	-0.4165107263453146	1.802366232459727	-1.770981640836754	-1.770981640836705	0.609378653569921	-0.05053380428816212	-0.5320390579247534	-0.1638445915709414	-1.558428228393536e-08	1.862555571888158e-07	1.425822021930002e-06	1.335228048517727e-06	-2.90518342543305e-07	1.013215226732486e-07	4.334060309696107e-07
0.55	-0.2384923310384459	-0.007002350858006075	0.822350107982649	0.9791203273478303	-0.2280697145572615	-0.119754691146087	-0.3629928935969893	0.7766365311355633	0.7766365311355451	0.02296146368458637	0.1744977064001735	0.2085191470960809	0.04344426497583144	-0.5462557102291128	-0.1746619093780787	-0.4084618121590733	1.830836918430932	-0.004061723037586253	0.2412345706264752	-0.5045754994085953	1.59127791960859	1.591277919608545	-0.2520688217428932	-7.378275529119769e-05	0.3805574424802179	0.09560048902004292	-0.1843052311285739	-0.01254009270109586	0.01219678960800927	-0.3246842994141292	0.09479420737170617	-0.008108722852846639	0.2148620605080939	-26.76810262302566	-12.8799435512092	-2.199045161291345	-3.276104762658005	1.065420753680737	-688.8753479686686	57.51518260008518	0.5119158120823991	0.5372170584459783	-0.06868625234978289	-2.005738290151136	-0.04690762881745918	-0.5239543279724062	1.824524132805404	-1.898333608649343	-1.89833360863002	0.5441614721253477	0.02756509063665362	-0.5605879065903507	-0.1643092849832117	-7.955779982489266e-09	2.020047844301307e-07	1.434324311241902e-06	1.431214272992176e-06	-3.03593752123709e-07	1.172794681878075e-07	4.493460498109296e-07
